<?xml version="1.0" standalone="no"?>
<!DOCTYPE svg PUBLIC "-//W3C//DTD SVG 20010904//EN"
 "http://www.w3.org/TR/2001/REC-SVG-20010904/DTD/svg10.dtd">
<svg version="1.0" xmlns="http://www.w3.org/2000/svg"
 width="558.000000pt" height="737.000000pt" viewBox="0 0 558.000000 737.000000"
 preserveAspectRatio="xMidYMid meet">

<g transform="translate(0.000000,737.000000) scale(0.100000,-0.100000)"
fill="#000000" stroke="none">
<path d="M0 7349 c0 -21 4 -21 58 -16 31 3 158 11 282 17 124 6 234 12 245 14
11 2 -116 4 -282 5 l-303 1 0 -21z"/>
<path d="M5514 7168 c4 -112 9 -241 11 -288 3 -47 7 -141 10 -210 14 -354 18
-437 21 -455 2 -11 5 -62 5 -112 1 -56 5 -93 12 -93 6 0 8 55 4 163 -3 89 -8
270 -12 402 -3 132 -8 251 -10 265 -2 14 -7 131 -10 260 -7 243 -9 270 -27
270 -7 0 -8 -67 -4 -202z"/>
<path d="M2620 7209 c-196 -13 -250 -24 -348 -72 -48 -24 -104 -47 -122 -51
-19 -3 -53 -15 -75 -25 -22 -10 -83 -35 -135 -55 -140 -54 -175 -74 -250 -146
-58 -56 -70 -63 -74 -47 -7 28 -27 16 -50 -29 -23 -44 -53 -73 -77 -74 -9 0
-19 -7 -23 -15 -3 -8 -11 -15 -19 -15 -17 0 -63 -49 -71 -77 -10 -33 -35 -49
-83 -52 -18 -1 -36 -69 -34 -128 2 -63 2 -98 0 -115 -1 -7 0 -19 2 -26 5 -16
-14 -28 -54 -37 -25 -5 -26 -8 -16 -27 13 -24 7 -131 -9 -151 -27 -35 -38
-170 -16 -198 6 -8 17 -39 23 -69 7 -30 16 -64 21 -75 14 -32 47 -145 60 -205
6 -30 16 -73 22 -95 6 -22 12 -49 14 -60 9 -66 15 -103 21 -125 3 -14 7 -27 8
-30 28 -113 31 -119 89 -167 14 -13 26 -32 26 -43 0 -11 4 -20 10 -20 5 0 12
-16 16 -35 3 -19 10 -38 15 -41 5 -3 9 -18 9 -33 0 -16 7 -34 15 -41 13 -11
15 -7 15 26 0 43 -18 147 -31 182 -6 15 -5 22 4 22 8 0 7 4 -3 11 -12 8 -12
12 -2 16 10 4 9 9 -4 24 -9 10 -13 19 -7 19 5 0 9 21 8 46 0 25 3 69 7 97 5
29 9 60 9 70 0 9 4 15 8 13 5 -3 6 5 4 17 -3 15 8 34 32 60 19 21 35 45 35 53
0 8 5 14 10 14 6 0 10 7 10 15 0 9 7 18 15 21 8 4 15 14 15 24 0 19 30 50 48
50 7 0 12 7 12 15 0 21 30 65 44 65 15 0 37 48 25 56 -5 3 -9 10 -9 15 0 6 4
8 9 5 4 -3 6 10 4 29 -2 20 0 34 4 33 5 -1 19 2 32 6 16 6 26 4 32 -5 6 -11
11 -11 21 -1 9 9 9 12 -4 12 -9 0 -23 11 -32 25 -13 19 -13 25 -3 25 7 0 18
-5 24 -11 8 -8 18 -3 38 20 15 17 31 28 36 26 4 -3 10 -1 14 5 3 5 17 10 30
10 18 0 23 4 19 15 -8 20 6 19 36 -2 22 -16 23 -16 17 1 -4 10 -7 20 -7 22 0
3 -4 2 -10 -1 -23 -14 -8 28 22 60 22 24 37 33 50 29 10 -3 18 -1 18 5 0 6 8
11 18 11 11 0 18 8 19 21 2 21 42 63 51 54 3 -3 -3 -12 -14 -19 -19 -15 -15
-28 11 -32 8 -1 15 4 15 11 0 7 7 15 15 19 8 3 15 1 15 -4 0 -12 41 -50 54
-50 6 0 3 5 -6 11 -25 14 -23 32 2 24 14 -5 20 -2 20 10 0 9 3 14 8 12 13 -8
52 12 52 28 0 22 18 19 25 -5 6 -19 8 -19 28 -5 12 8 26 15 32 15 5 0 3 -5 -5
-10 -11 -7 -4 -9 25 -7 38 2 39 3 41 40 0 25 -4 41 -15 47 -24 13 -6 23 18 11
16 -9 19 -18 14 -44 -5 -26 -3 -30 8 -19 20 18 39 15 39 -8 0 -11 5 -20 11
-20 6 0 13 9 16 20 3 11 10 20 15 20 6 0 8 -9 5 -20 -3 -10 0 -23 7 -28 13
-12 56 3 56 18 0 6 5 8 10 5 6 -4 10 9 10 31 l0 37 20 -26 c24 -31 26 -44 3
-26 -15 12 -16 12 -10 -4 4 -10 7 -25 7 -33 0 -8 9 -14 20 -14 13 0 20 7 20
20 0 17 3 18 26 10 34 -13 34 -13 35 13 0 21 1 21 8 2 l9 -20 4 20 c4 13 5 11
4 -7 -2 -22 2 -27 28 -31 17 -2 34 0 37 5 3 5 9 2 13 -7 4 -11 15 -15 38 -13
28 3 33 7 30 27 l-2 25 20 -24 c11 -13 23 -20 28 -15 4 4 1 10 -5 12 -22 8
-15 32 8 26 15 -4 22 0 26 16 3 11 10 21 15 21 5 0 6 -4 3 -10 -3 -5 -1 -10 4
-10 6 0 11 5 11 10 0 6 7 10 15 10 8 0 15 5 15 10 0 6 6 10 14 10 9 0 12 -7 9
-20 -4 -15 2 -22 22 -30 15 -6 30 -8 35 -5 8 5 27 -13 31 -30 1 -5 6 -21 12
-33 10 -22 12 -23 24 -6 12 17 15 16 48 -16 19 -19 35 -30 35 -26 0 4 7 1 15
-8 9 -8 21 -13 28 -10 7 2 17 -6 22 -18 6 -12 20 -22 32 -23 21 -2 83 -55 83
-73 0 -5 9 -16 19 -23 17 -12 29 -55 31 -108 0 -11 4 -10 16 5 13 16 15 17 10
1 -8 -26 11 -68 34 -74 11 -3 17 -9 14 -14 -3 -5 4 -9 15 -9 14 0 23 -9 27
-25 3 -14 10 -25 15 -25 5 0 9 -6 9 -14 0 -8 8 -21 18 -28 25 -19 62 -92 67
-133 3 -20 10 -46 16 -57 10 -18 17 -127 19 -280 0 -58 15 -45 35 30 10 37 24
72 30 79 14 13 35 140 35 207 0 23 4 67 9 97 5 30 15 95 21 144 7 50 23 127
37 172 14 48 26 120 29 175 7 125 6 145 -10 176 -7 15 -19 50 -26 77 -14 52
-25 75 -78 161 -18 28 -32 55 -32 61 0 5 -25 35 -56 67 -33 34 -53 63 -50 71
5 14 -21 39 -114 108 -25 18 -50 42 -55 54 -9 17 -47 54 -90 85 -5 4 -30 26
-55 48 -25 21 -83 56 -130 76 -47 20 -87 40 -90 44 -3 5 -34 18 -70 31 -36 12
-86 32 -112 45 -26 13 -58 24 -70 24 -13 0 -45 7 -72 15 -53 16 -128 17 -326
4z m70 -953 c0 -2 3 -11 6 -20 4 -10 1 -16 -9 -16 -8 0 -17 9 -20 20 -3 13 0
20 9 20 8 0 14 -2 14 -4z m-202 -73 c-3 -15 -5 -15 -22 2 -18 18 -18 19 0 32
16 12 19 12 22 -1 2 -9 2 -24 0 -33z m412 7 c0 -4 -6 -12 -13 -18 -10 -8 -13
-5 -15 13 -1 18 2 23 13 19 8 -4 15 -10 15 -14z"/>
<path d="M2790 6151 c0 -5 5 -13 10 -16 6 -3 10 -2 10 4 0 5 -4 13 -10 16 -5
3 -10 2 -10 -4z"/>
<path d="M2906 6115 c-3 -9 0 -15 9 -15 16 0 20 16 6 24 -5 3 -11 -1 -15 -9z"/>
<path d="M2220 6100 c0 -11 4 -20 8 -20 4 0 8 9 9 20 1 11 -2 20 -8 20 -5 0
-9 -9 -9 -20z"/>
<path d="M2316 6105 c-3 -8 -1 -15 4 -15 6 0 10 7 10 15 0 8 -2 15 -4 15 -2 0
-6 -7 -10 -15z"/>
<path d="M2381 6113 l-24 -5 24 -12 c27 -14 39 -11 39 10 0 8 -3 13 -7 13 -5
-1 -19 -4 -32 -6z"/>
<path d="M2841 6104 c0 -11 3 -14 6 -6 3 7 2 16 -1 19 -3 4 -6 -2 -5 -13z"/>
<path d="M2161 6074 c0 -11 3 -14 6 -6 3 7 2 16 -1 19 -3 4 -6 -2 -5 -13z"/>
<path d="M2340 6069 c0 -5 5 -7 10 -4 6 3 10 8 10 11 0 2 -4 4 -10 4 -5 0 -10
-5 -10 -11z"/>
<path d="M2070 6024 c0 -8 5 -12 10 -9 6 4 8 11 5 16 -9 14 -15 11 -15 -7z"/>
<path d="M5568 5963 c-2 -5 0 -46 3 -93 l5 -85 2 93 c2 83 -1 106 -10 85z"/>
<path d="M3395 5570 c3 -5 -1 -10 -9 -10 -21 0 -20 -29 2 -47 15 -12 13 -12
-10 -2 -16 7 -28 16 -28 21 0 5 -5 6 -12 2 -6 -4 -17 1 -25 12 -10 13 -16 15
-21 7 -4 -7 -31 -12 -63 -12 -31 0 -76 -5 -99 -11 -23 -6 -52 -13 -64 -14 -33
-4 -56 -17 -56 -31 0 -16 -76 -25 -90 -11 -7 7 -10 4 -10 -7 0 -9 -4 -16 -9
-14 -10 2 -51 -42 -51 -56 0 -5 -7 -7 -15 -3 -10 4 -15 -1 -16 -17 0 -12 -3
-16 -6 -9 -7 18 -22 5 -16 -16 2 -10 19 -27 36 -37 18 -10 40 -27 50 -37 16
-16 21 -17 35 -6 14 11 15 10 9 -6 -5 -11 -3 -22 3 -26 8 -5 8 -15 0 -36 -10
-25 -9 -31 8 -42 17 -11 18 -17 8 -59 -8 -35 -7 -48 2 -51 7 -2 12 -12 12 -22
0 -10 7 -20 15 -24 8 -3 15 -14 15 -25 0 -11 8 -22 18 -24 16 -4 16 -5 0 -6
-10 0 -18 -8 -18 -16 0 -21 9 -19 30 5 11 12 21 17 24 11 10 -16 67 -41 78
-35 5 4 8 15 5 25 -6 22 26 44 49 35 8 -3 14 1 14 10 0 8 -4 13 -9 10 -5 -3
-15 2 -22 11 -10 12 -10 14 -1 9 6 -4 12 -2 12 3 0 6 19 11 43 11 37 0 46 5
76 41 23 28 35 54 39 85 4 38 8 44 29 44 13 0 42 -12 64 -27 l41 -27 -23 -19
c-16 -13 -20 -21 -11 -24 6 -3 9 -9 6 -15 -3 -5 3 -4 15 4 12 7 21 20 21 30 0
12 7 16 29 13 40 -5 48 20 13 42 -15 9 -44 27 -66 40 -21 14 -35 19 -31 11 6
-10 5 -11 -6 0 -7 6 -24 12 -38 12 -15 0 -31 4 -37 8 -17 11 -26 49 -14 57 5
3 10 15 10 26 0 11 -4 18 -9 15 -5 -3 -11 0 -14 8 -5 11 -14 12 -47 5 -29 -7
-46 -6 -55 1 -9 8 -15 8 -20 0 -8 -13 -35 -13 -35 0 0 5 8 7 18 4 15 -5 15 -4
-2 10 -15 12 -16 18 -7 29 9 12 43 14 162 13 83 0 153 2 156 7 8 14 25 7 19
-9 -3 -8 -2 -12 4 -9 6 3 10 1 10 -4 0 -17 27 -13 34 4 8 21 22 19 45 -6 11
-12 24 -18 30 -15 5 4 12 2 16 -4 4 -6 12 -7 18 -3 9 5 9 3 0 -8 -10 -12 -8
-15 8 -16 16 -2 19 2 13 20 -4 12 -10 24 -14 27 -4 3 -6 19 -5 35 2 17 1 24
-2 18 -8 -23 -29 -14 -63 27 -18 22 -38 36 -44 33 -24 -16 -71 -1 -95 29 -23
28 -25 29 -32 12 -7 -17 -8 -17 -8 4 -1 12 -6 22 -12 22 -5 0 -7 -4 -4 -10z
m-285 -190 c-8 -5 -22 -9 -30 -9 -10 0 -8 3 5 9 27 12 43 12 25 0z m-90 -12
c0 -9 4 -8 10 2 8 13 10 13 10 -2 0 -9 10 -18 23 -21 22 -4 22 -4 -3 -14 -19
-8 -29 -7 -42 4 -14 13 -17 12 -21 -4 -3 -10 -5 -4 -6 15 -1 22 4 32 14 32 8
0 15 -6 15 -12z m-114 -16 c9 -14 8 -25 -1 -47 -11 -24 -14 -26 -14 -10 -1 11
-8 30 -16 41 -8 12 -11 24 -8 28 11 11 28 6 39 -12z m48 -14 c-3 -4 -9 -8 -15
-8 -5 0 -9 4 -9 8 0 5 7 9 15 9 8 0 12 -4 9 -9z m209 -245 c26 -29 18 -37 -27
-29 -56 11 -73 59 -34 98 l22 22 9 -35 c5 -18 18 -44 30 -56z m17 67 c0 -5 -4
-10 -9 -10 -6 0 -13 5 -16 10 -3 6 1 10 9 10 9 0 16 -4 16 -10z m120 6 c0 -11
-19 -15 -25 -6 -3 5 1 10 9 10 9 0 16 -2 16 -4z m-185 -236 c3 -5 1 -10 -4
-10 -6 0 -11 5 -11 10 0 6 2 10 4 10 3 0 8 -4 11 -10z"/>
<path d="M1960 5500 c0 -5 -6 -10 -13 -10 -7 0 -21 -15 -32 -32 -23 -40 -37
-51 -47 -35 -6 9 -8 9 -8 -1 0 -7 -4 -11 -9 -8 -12 8 -34 -21 -26 -34 4 -6 3
-10 -2 -9 -25 4 -43 -3 -43 -18 0 -16 -2 -16 -11 -3 -8 12 -9 9 -5 -12 4 -18
2 -28 -5 -28 -6 0 -9 -6 -6 -14 3 -7 0 -19 -6 -26 -9 -10 -7 -11 11 -5 16 5
22 2 22 -9 0 -15 -11 -20 -37 -17 -15 2 -17 -15 -3 -24 17 -11 50 15 50 39 0
24 29 46 31 23 0 -7 4 -3 9 8 5 11 9 14 9 8 1 -7 10 -13 20 -13 11 0 22 -8 24
-17 3 -13 5 -11 6 6 1 21 40 63 58 61 4 -1 7 -13 5 -28 -2 -23 -1 -24 8 -9 6
9 20 17 31 17 11 0 17 5 14 10 -3 6 -1 10 4 10 6 0 11 -4 11 -10 0 -5 7 -10
15 -10 8 0 14 6 13 13 -2 6 6 12 17 12 11 0 22 3 25 6 7 10 137 15 146 7 4 -4
1 -14 -6 -23 -10 -12 -10 -15 0 -15 8 0 10 -3 7 -6 -4 -4 -13 -1 -22 6 -8 7
-22 9 -31 6 -13 -5 -14 -9 -4 -21 17 -20 1 -19 -22 1 -16 15 -18 15 -24 0 -3
-9 -10 -14 -14 -11 -4 3 -13 -2 -20 -10 -7 -8 -21 -15 -31 -15 -10 0 -20 -4
-23 -9 -3 -5 -15 -7 -25 -4 -14 3 -23 -3 -33 -24 -7 -15 -17 -26 -22 -23 -4 3
-14 -7 -22 -22 -8 -15 -23 -32 -34 -38 -17 -9 -20 -7 -21 12 -1 20 -2 20 -9
-5 -14 -48 10 -71 41 -40 12 12 49 6 49 -8 0 -9 -21 -13 -46 -10 -20 2 -24
-28 -6 -38 11 -7 12 -10 4 -11 -28 0 -4 -24 29 -28 18 -2 37 -8 40 -14 3 -5
22 -8 42 -7 20 2 39 0 43 -4 4 -4 16 -7 27 -7 20 0 20 0 1 19 -10 10 -21 17
-23 15 -3 -3 -60 23 -70 33 -6 4 36 35 60 45 13 5 18 0 23 -24 4 -19 14 -32
26 -35 14 -4 19 -11 15 -23 -5 -15 3 -19 57 -24 43 -4 75 -2 102 8 22 7 47 12
55 11 9 -2 19 -4 24 -4 4 -1 7 -8 7 -17 0 -11 -6 -13 -19 -9 -21 6 -36 -9 -26
-25 5 -8 11 -8 20 0 10 8 15 8 20 0 4 -6 4 -14 1 -17 -3 -4 -6 -1 -6 6 0 7 -4
9 -10 6 -16 -10 -12 -38 5 -31 19 7 19 1 -1 -18 -14 -15 -14 -16 3 -16 11 0
24 -5 31 -12 9 -9 12 -7 12 10 0 23 34 44 56 35 6 -2 10 6 9 19 -1 17 4 24 24
28 24 5 26 9 27 63 1 31 -2 60 -7 63 -12 7 -11 54 1 54 6 0 10 9 10 21 0 11 4
18 9 15 5 -3 9 13 9 35 1 22 5 46 10 52 5 7 12 20 16 31 5 14 3 17 -10 12 -13
-5 -15 -2 -11 13 5 22 -13 85 -31 103 -8 8 -15 8 -26 -1 -11 -9 -15 -9 -18 0
-2 7 -15 14 -29 16 -31 4 -79 24 -79 32 0 3 -37 7 -83 9 -45 1 -94 7 -109 13
-21 8 -40 8 -72 0 -60 -15 -76 -14 -76 4 0 12 -4 14 -19 5 -13 -7 -22 -7 -26
0 -8 13 -25 13 -25 0z m325 -159 c3 -5 1 -12 -5 -16 -5 -3 -10 1 -10 9 0 18 6
21 15 7z m115 -15 c0 -2 -7 -7 -16 -10 -8 -3 -12 -2 -9 4 6 10 25 14 25 6z
m137 -63 c-3 -10 -5 -4 -5 12 0 17 2 24 5 18 2 -7 2 -21 0 -30z m-274 -57 l25
-25 -29 1 c-15 1 -27 6 -26 12 1 6 -8 10 -21 9 -19 -3 -21 -1 -10 12 19 21 34
18 61 -9z m-165 5 c11 -7 11 -11 -2 -23 -8 -9 -14 -17 -12 -19 2 -2 -12 -11
-31 -21 -30 -14 -35 -14 -40 -1 -3 8 0 26 8 41 13 26 13 26 17 5 2 -13 10 -23
19 -23 13 0 13 3 2 16 -10 13 -10 17 2 25 17 11 21 11 37 0z m49 -2 c-9 -6
-15 -14 -12 -20 6 -9 -22 -25 -30 -17 -9 9 27 48 43 48 15 -1 15 -2 -1 -11z
m208 -39 c3 -5 -1 -10 -9 -10 -9 0 -16 5 -16 10 0 6 4 10 9 10 6 0 13 -4 16
-10z m33 -25 c-3 -3 -9 2 -12 12 -6 14 -5 15 5 6 7 -7 10 -15 7 -18z m-388 1
c0 -3 -4 -8 -10 -11 -5 -3 -10 -1 -10 4 0 6 5 11 10 11 6 0 10 -2 10 -4z m364
-45 l37 -30 -39 -25 c-22 -13 -48 -26 -58 -28 -17 -3 -19 3 -16 42 5 81 17 88
76 41z"/>
<path d="M3360 5316 c0 -19 7 -26 30 -31 16 -4 34 -14 39 -23 5 -9 13 -14 16
-10 4 4 14 0 22 -8 9 -8 23 -14 32 -12 19 4 28 38 9 38 -7 0 -24 9 -38 20 -14
11 -34 20 -45 20 -11 0 -31 7 -43 16 -21 14 -22 14 -22 -10z"/>
<path d="M4008 5212 c-28 -17 -36 -32 -18 -32 6 0 10 5 10 10 0 6 7 10 15 10
8 0 15 5 15 11 0 5 4 8 9 4 5 -3 12 -1 16 5 10 16 -17 11 -47 -8z"/>
<path d="M3930 5170 c0 -5 7 -10 15 -10 8 0 15 5 15 10 0 6 -7 10 -15 10 -8 0
-15 -4 -15 -10z"/>
<path d="M4152 5171 c4 -13 18 -16 19 -4 0 4 -5 9 -11 12 -7 2 -11 -2 -8 -8z"/>
<path d="M3365 5080 c-3 -5 3 -10 14 -10 12 0 21 5 21 10 0 6 -6 10 -14 10 -8
0 -18 -4 -21 -10z"/>
<path d="M4171 5044 c1 -22 -6 -82 -15 -134 -9 -52 -16 -103 -16 -112 0 -28
17 -21 23 10 3 15 12 56 21 92 20 85 20 154 1 170 -13 11 -15 7 -14 -26z"/>
<path d="M1275 5021 c-6 -11 10 -32 27 -34 8 -2 24 -12 36 -23 27 -25 61 -26
76 -1 14 22 -8 38 -41 32 -13 -2 -23 -1 -23 3 0 10 -70 31 -75 23z"/>
<path d="M1173 4933 c-26 -40 -30 -157 -7 -225 10 -29 17 -56 16 -59 0 -4 8
-15 18 -24 11 -10 20 -23 20 -28 0 -18 41 -97 51 -97 5 0 8 -3 7 -8 -5 -12 35
-58 62 -72 21 -11 20 -7 -9 24 -19 20 -31 36 -26 36 5 0 4 5 -3 12 -7 7 -12
20 -12 30 0 10 -4 26 -9 36 -26 49 -52 135 -60 196 -10 89 -6 134 15 157 22
24 11 49 -20 49 -17 0 -32 -10 -43 -27z"/>
<path d="M2307 4863 c-14 -13 -6 -29 14 -30 18 -2 19 0 8 15 -8 9 -14 18 -15
20 0 1 -4 -1 -7 -5z"/>
<path d="M4004 4775 c-4 -8 -11 -12 -17 -8 -6 4 -8 -2 -5 -15 4 -13 1 -22 -5
-22 -7 0 -5 -5 3 -10 10 -6 11 -10 3 -10 -7 0 -13 -5 -13 -11 0 -16 -50 -53
-79 -59 -19 -4 -27 -12 -29 -32 -3 -23 0 -27 15 -21 10 4 27 15 37 25 11 10
24 18 29 18 18 0 66 61 72 93 4 17 9 40 11 50 6 21 -14 23 -22 2z"/>
<path d="M4130 4750 c0 -19 3 -21 12 -12 9 9 9 15 0 24 -9 9 -12 7 -12 -12z"/>
<path d="M1528 4718 c13 -26 17 -29 20 -15 5 26 -5 47 -22 47 -12 0 -12 -5 2
-32z"/>
<path d="M1405 4700 c-10 -22 -21 -37 -26 -34 -17 10 -39 -42 -33 -77 7 -38
45 -119 56 -119 5 0 36 -13 70 -29 35 -16 77 -32 95 -36 34 -7 68 -46 52 -62
-5 -5 -1 -9 11 -10 11 -1 20 3 20 8 0 6 5 7 10 4 6 -4 1 10 -10 30 -12 21 -18
40 -15 43 3 3 -2 16 -10 29 -9 13 -13 28 -10 33 3 5 0 12 -6 16 -6 3 -15 0
-20 -7 -4 -8 -3 -16 3 -20 6 -4 2 -9 -10 -13 -29 -10 -114 35 -122 64 -15 56
-16 81 -4 91 8 6 14 18 14 25 0 8 5 23 12 33 9 15 7 23 -8 44 -27 37 -48 33
-69 -13z"/>
<path d="M2913 4544 c-25 -11 -12 -31 27 -43 27 -8 37 -16 34 -26 -4 -10 0
-12 15 -8 42 11 14 66 -39 77 -14 2 -31 2 -37 0z"/>
<path d="M2615 4526 c-16 -6 -31 -11 -33 -12 -1 0 -5 -20 -8 -42 -7 -52 9 -55
54 -12 18 17 36 30 42 30 5 0 10 7 10 15 0 8 -6 15 -14 15 -8 0 -16 4 -18 8
-1 4 -16 3 -33 -2z"/>
<path d="M2878 4368 c-10 -10 -18 -13 -18 -7 0 14 -24 -10 -35 -36 -7 -17 -9
-18 -12 -3 -6 25 -64 48 -138 53 -60 4 -70 2 -99 -20 -18 -14 -37 -25 -43 -25
-5 0 -18 -9 -28 -20 -10 -11 -24 -20 -30 -20 -7 0 -12 -8 -11 -17 0 -10 -4
-17 -11 -16 -7 2 -17 -6 -23 -17 -6 -11 -17 -20 -24 -20 -7 0 -18 -11 -24 -25
-6 -14 -16 -25 -22 -25 -6 0 -8 -4 -5 -10 3 -5 -3 -10 -13 -10 -23 0 -36 -48
-22 -82 7 -19 9 -19 9 -5 1 10 4 16 9 14 4 -3 5 -28 4 -55 -3 -39 -7 -49 -18
-45 -9 3 -14 -2 -14 -14 0 -25 37 -25 62 0 10 10 32 20 48 23 16 4 31 13 34
20 3 8 18 14 33 14 49 0 63 3 63 16 0 6 12 15 26 18 14 4 35 15 46 26 18 16
62 19 77 4 2 -2 14 2 26 10 14 9 40 14 69 12 47 -4 70 9 45 25 -8 4 -30 7 -51
5 -22 -3 -39 1 -42 7 -3 9 -7 9 -13 0 -5 -7 -32 -11 -71 -10 -41 1 -62 -2 -62
-9 0 -7 -10 -15 -22 -19 -13 -4 -27 -9 -33 -11 -46 -15 -55 -16 -55 -1 0 9 -4
19 -10 22 -6 4 -7 -1 -3 -11 5 -14 3 -16 -11 -11 -10 4 -20 7 -22 7 -2 0 -4 9
-4 20 0 28 40 64 90 80 22 7 40 19 40 25 0 17 78 27 235 32 72 2 139 4 150 5
11 1 34 -2 50 -6 17 -4 38 -8 48 -8 9 1 17 -3 17 -9 0 -5 9 -9 21 -9 11 0 29
-5 40 -10 13 -7 19 -7 19 0 0 5 7 10 15 10 18 0 20 -17 3 -23 -7 -2 -10 -8 -6
-12 4 -4 14 -3 22 4 11 9 15 8 20 -5 5 -13 14 -15 41 -10 24 5 35 3 35 -5 0
-7 3 -10 6 -6 9 8 -10 37 -33 50 -64 38 -123 80 -123 88 0 5 -11 9 -24 9 -13
0 -29 7 -36 15 -7 8 -16 12 -21 9 -5 -3 -6 1 -3 9 4 11 -2 14 -20 12 -14 -2
-24 1 -23 7 1 6 -22 11 -53 12 -40 1 -59 -3 -72 -16z"/>
<path d="M1650 4320 c-12 -8 -13 -13 -2 -30 6 -11 12 -33 12 -49 0 -17 5 -33
10 -36 18 -11 21 21 8 73 -11 42 -16 50 -28 42z"/>
<path d="M1682 4174 c-7 -8 -8 -14 -3 -14 10 0 25 19 20 25 -2 1 -10 -3 -17
-11z"/>
<path d="M2882 4134 c-18 -17 -20 -23 -8 -27 17 -7 39 16 34 35 -2 9 -10 7
-26 -8z"/>
<path d="M3277 4144 c5 -14 3 -15 -14 -6 -11 6 -25 7 -33 2 -8 -5 -18 -6 -22
-4 -4 3 -8 1 -8 -4 0 -9 -12 -12 -75 -15 -22 -2 -49 -8 -60 -16 -12 -7 -13
-11 -4 -8 25 8 81 -23 74 -41 -4 -11 -2 -12 7 -5 15 12 90 5 83 -7 -3 -4 17
-10 45 -12 54 -3 60 2 49 47 -4 17 -7 26 -8 21 0 -6 -7 -1 -15 9 -8 11 -12 25
-9 31 2 7 0 15 -6 19 -7 4 -8 0 -4 -11z"/>
<path d="M3026 4124 c-8 -22 -7 -34 3 -34 12 0 21 39 11 45 -4 3 -11 -2 -14
-11z"/>
<path d="M2940 4120 c-22 -6 -23 -8 -7 -15 9 -4 25 -4 35 1 9 4 20 6 25 6 4
-1 7 3 7 8 0 11 -23 12 -60 0z"/>
<path d="M2505 4100 c-3 -5 -1 -10 4 -10 6 0 11 5 11 10 0 6 -2 10 -4 10 -3 0
-8 -4 -11 -10z"/>
<path d="M2900 3986 c-3 -3 -28 -7 -55 -9 -94 -9 -106 -16 -103 -51 2 -25 8
-32 30 -34 15 -2 36 1 46 7 13 7 22 7 30 -1 15 -15 69 -20 77 -8 3 6 14 10 24
10 9 0 23 6 30 13 6 6 16 13 22 13 5 1 14 2 19 3 6 0 10 13 9 29 0 26 0 27
-10 4 -9 -23 -29 -22 -29 2 0 6 -10 12 -22 13 -13 1 -32 4 -43 8 -11 3 -23 4
-25 1z"/>
<path d="M2667 3954 c-8 -8 1 -24 13 -24 4 0 10 7 14 15 5 15 -14 21 -27 9z"/>
<path d="M2710 3953 c0 -5 5 -15 10 -23 8 -12 10 -11 10 8 0 12 -4 22 -10 22
-5 0 -10 -3 -10 -7z"/>
<path d="M2798 3883 c-10 -2 -18 -11 -18 -19 0 -12 4 -12 20 -4 11 6 25 8 32
4 6 -4 9 -1 6 6 -5 16 -16 19 -40 13z"/>
<path d="M3669 3831 c8 -5 10 -14 6 -22 -6 -11 -5 -11 5 -2 14 12 6 33 -13 33
-8 0 -7 -3 2 -9z"/>
<path d="M3653 3773 c-7 -2 -13 -11 -13 -19 0 -9 -4 -13 -9 -9 -6 3 -19 -5
-31 -17 -18 -19 -22 -21 -31 -8 -8 12 -9 10 -4 -7 3 -12 1 -25 -6 -29 -8 -5
-10 -2 -5 7 4 8 1 6 -7 -4 -11 -14 -26 -18 -54 -15 -21 1 -41 6 -44 11 -3 4
-15 9 -27 12 -12 2 -26 6 -31 9 -5 3 -11 -1 -15 -9 -3 -8 0 -15 6 -15 6 0 9
-3 5 -6 -3 -4 -22 4 -41 16 -30 18 -36 19 -36 6 0 -9 -5 -16 -11 -16 -6 0 -9
-9 -6 -20 3 -11 2 -18 -3 -15 -4 2 -20 -7 -34 -20 -28 -26 -52 -34 -40 -12 6
10 4 10 -7 0 -18 -18 -29 -16 -30 5 0 13 -2 12 -9 -5 -5 -13 -18 -23 -29 -23
-14 0 -19 5 -15 15 4 8 1 15 -7 15 -7 0 -9 -3 -6 -6 10 -10 -12 -44 -28 -44
-9 0 -24 -6 -36 -12 -17 -11 -22 -10 -33 4 -13 18 -43 8 -32 -11 4 -6 2 -11
-3 -11 -6 0 -11 8 -11 19 0 10 -7 24 -15 31 -12 10 -15 10 -15 -1 0 -11 -21
-14 -92 -15 -62 0 -93 -4 -96 -12 -2 -7 -10 -12 -17 -12 -7 0 -16 -6 -19 -12
-3 -9 -9 -7 -20 6 -9 11 -16 14 -16 8 0 -7 -9 -12 -21 -12 -11 0 -17 5 -14 10
9 14 -37 29 -57 19 -12 -7 -18 -4 -23 10 -7 22 -75 35 -88 17 -5 -6 -5 -1 -2
12 5 17 1 24 -17 31 -13 4 -29 6 -35 4 -8 -3 -13 4 -14 18 0 23 -1 23 -9 4 -5
-11 -9 -15 -9 -9 -1 6 -15 17 -32 24 -35 15 -22 30 20 25 14 -2 20 -2 13 1 -6
3 -10 10 -6 15 3 5 -4 9 -15 9 -12 0 -21 -4 -21 -10 0 -16 -37 -12 -54 6 -15
14 -16 13 -16 -12 0 -25 -2 -26 -32 -20 -24 4 -29 3 -18 -4 12 -8 11 -10 -5
-10 -12 0 -27 6 -33 12 -10 10 -14 8 -18 -10 -4 -13 -11 -19 -18 -15 -6 4 -15
8 -21 8 -14 1 -34 -19 -28 -27 2 -5 -1 -8 -6 -8 -6 0 -11 5 -11 12 0 6 -9 3
-20 -7 -11 -10 -20 -13 -20 -7 0 6 6 12 13 15 6 2 9 8 5 12 -4 4 -14 2 -23 -5
-10 -8 -15 -9 -15 -1 0 6 -7 11 -16 11 -14 0 -14 -3 -4 -15 7 -8 9 -15 4 -16
-5 0 -17 -2 -27 -4 -9 -2 -24 6 -32 18 -8 12 -15 17 -15 12 0 -6 -5 -3 -11 5
-8 12 -9 10 -4 -9 4 -14 3 -21 -2 -18 -6 4 -8 -4 -5 -19 5 -26 68 -93 88 -94
5 0 31 -13 57 -30 26 -16 53 -30 60 -30 7 0 18 -5 25 -12 6 -6 18 -13 25 -14
22 -3 95 -54 101 -70 3 -8 15 -14 26 -14 11 0 20 -4 20 -8 0 -5 14 -9 31 -9
19 0 35 -6 41 -16 10 -19 38 -23 38 -7 0 6 16 10 35 8 24 -1 31 -5 25 -13 -17
-20 2 -26 28 -9 13 8 26 13 30 10 3 -3 0 -6 -6 -6 -7 0 -12 -5 -12 -10 0 -7 6
-7 20 0 16 8 61 9 123 1 5 -1 6 -5 3 -10 -8 -13 23 -22 42 -13 9 4 52 8 95 8
42 -1 77 3 77 8 0 5 6 3 14 -3 11 -10 20 -10 36 -1 12 7 56 14 99 16 42 3 87
6 101 7 14 1 45 14 70 29 25 15 61 34 80 42 20 8 44 24 54 35 11 12 23 21 29
21 5 0 37 18 71 41 33 23 68 42 76 44 8 1 14 8 13 14 -2 6 8 11 22 11 15 0 25
6 25 14 0 11 20 26 35 26 5 0 15 -103 16 -180 1 -41 5 -77 10 -80 10 -7 15
-132 6 -147 -4 -7 -2 -22 5 -34 10 -17 10 -23 1 -26 -8 -3 -11 -14 -7 -29 3
-13 2 -30 -4 -37 -5 -6 -12 -24 -16 -39 -3 -16 -11 -28 -16 -28 -6 0 -10 -7
-10 -16 0 -9 -5 -12 -12 -8 -7 4 -8 3 -4 -4 4 -6 -5 -29 -19 -51 -14 -23 -25
-44 -25 -49 0 -5 -16 -25 -36 -44 -19 -20 -37 -44 -38 -55 -1 -10 -11 -22 -22
-27 -11 -5 -36 -32 -57 -59 -20 -28 -37 -46 -37 -39 0 6 -11 0 -25 -14 -14
-14 -25 -32 -25 -40 0 -8 -4 -12 -10 -9 -5 3 -10 1 -10 -4 0 -6 -6 -11 -13
-11 -7 0 -21 -13 -30 -30 -10 -16 -22 -30 -28 -30 -5 0 -14 -12 -20 -26 -5
-15 -12 -24 -16 -20 -11 11 -32 -15 -26 -31 4 -11 2 -14 -5 -9 -7 4 -20 2 -29
-3 -10 -6 -12 -11 -5 -11 17 0 15 -20 -3 -20 -9 0 -15 -9 -15 -25 0 -16 -6
-25 -15 -25 -8 0 -15 -6 -15 -12 0 -9 -4 -8 -11 2 -7 11 -9 4 -4 -25 3 -22 6
-57 7 -77 1 -26 6 -38 20 -41 11 -3 16 -11 12 -20 -6 -17 30 -42 46 -32 6 4
22 -3 36 -14 14 -11 32 -17 40 -14 8 3 14 0 14 -6 0 -20 18 -12 23 11 6 21 7
21 27 3 11 -10 20 -13 20 -7 0 6 -4 13 -10 17 -5 3 -7 12 -4 20 5 13 8 12 21
0 18 -18 33 -11 33 16 0 10 5 19 10 19 6 0 10 9 10 21 0 11 8 33 18 47 10 15
26 44 35 64 17 35 37 58 37 41 0 -21 -43 -142 -70 -198 -17 -35 -30 -70 -30
-79 0 -9 -4 -16 -9 -16 -5 0 -12 -8 -16 -19 -3 -10 -15 -29 -26 -42 -16 -18
-20 -36 -18 -79 1 -30 -4 -81 -10 -112 -13 -60 -19 -101 -20 -130 -1 -21 -9
-22 -45 -8 -23 8 -25 12 -16 35 7 17 7 32 0 43 -9 16 -9 16 -10 1 0 -22 -24
-31 -40 -16 -10 10 -12 8 -6 -8 6 -20 6 -20 -9 -1 -8 11 -15 15 -15 10 0 -6
-7 -11 -15 -11 -8 0 -15 9 -15 21 -1 19 -2 19 -11 4 -5 -10 -9 -24 -8 -30 3
-25 -1 -35 -15 -35 -8 0 -12 6 -9 14 3 8 -3 13 -17 13 -11 0 -19 -3 -17 -7 3
-5 -6 -8 -19 -8 -17 0 -22 5 -20 18 1 10 9 23 17 28 10 6 6 9 -16 9 l-30 0 30
16 c39 20 45 28 18 21 -13 -3 -23 -2 -23 2 0 5 -9 18 -20 31 -12 13 -18 30
-16 37 3 7 2 12 -2 11 -15 -3 -42 15 -42 28 0 8 -4 14 -9 14 -4 0 -19 20 -32
45 -16 31 -32 48 -49 51 -14 3 -29 7 -35 8 -5 2 -20 -8 -32 -21 -26 -28 -33
-29 -44 -11 -7 10 -9 9 -9 -4 0 -11 -8 -18 -18 -18 -10 0 -22 -4 -28 -10 -5
-5 -31 -10 -57 -11 -26 -1 -50 -7 -54 -12 -3 -5 -9 -3 -14 4 -6 10 -9 8 -9 -8
0 -14 -6 -23 -15 -23 -8 0 -14 6 -13 12 2 7 -7 14 -19 16 -13 2 -23 8 -23 13
0 5 -7 9 -16 9 -8 0 -12 -4 -9 -10 3 -5 1 -10 -4 -10 -6 0 -11 7 -11 15 0 8 5
15 10 15 6 0 10 7 10 17 0 15 1 15 18 0 17 -15 17 -14 15 23 -1 22 -6 48 -12
57 -8 14 -9 11 -6 -14 2 -18 -1 -35 -6 -38 -5 -4 -9 -1 -9 5 0 6 -5 8 -10 5
-6 -4 -8 -10 -5 -15 3 -5 1 -11 -5 -15 -5 -3 -10 3 -10 14 0 11 8 25 18 30 15
9 15 12 2 21 -13 9 -13 11 0 20 11 7 12 12 3 18 -8 5 -6 14 8 32 l20 25 -6
-24 c-5 -17 -4 -22 6 -19 8 3 13 12 11 21 -1 8 2 18 7 22 6 3 8 12 4 20 -3 8
-1 15 4 15 5 0 10 15 10 33 0 17 -2 26 -4 20 -3 -7 -9 -13 -15 -13 -6 0 -8 7
-5 15 4 8 1 17 -5 21 -7 4 -6 9 3 15 12 7 12 9 0 9 -8 0 -11 6 -7 16 3 9 -4
24 -19 38 -14 13 -25 29 -25 36 0 7 -16 26 -35 43 -19 16 -33 33 -30 37 3 4
-6 15 -20 24 -13 9 -22 22 -19 29 3 8 -2 20 -11 27 -8 7 -15 9 -15 6 0 -12
-32 24 -34 38 -1 7 -17 27 -36 43 -20 17 -53 57 -75 89 -21 33 -48 69 -58 81
-13 14 -18 31 -15 47 3 14 2 23 -2 21 -11 -7 -47 57 -54 92 -3 15 -8 38 -11
49 -4 12 -2 25 4 28 16 10 13 26 -4 26 -18 0 -19 5 -4 32 8 16 8 19 -1 13 -20
-12 -30 16 -30 82 0 54 3 64 25 81 14 11 25 23 25 27 0 5 -9 0 -20 -10 -20
-18 -20 -17 -21 36 -1 30 0 64 1 77 1 13 -4 22 -12 22 -16 0 -58 -44 -58 -60
0 -6 -5 -10 -10 -10 -6 0 -14 -8 -17 -17 -12 -31 -38 -48 -77 -50 -21 -1 -45
-8 -55 -16 -9 -8 -36 -25 -61 -37 -25 -12 -76 -45 -115 -73 -38 -28 -90 -59
-115 -68 -25 -9 -72 -29 -105 -44 -33 -16 -68 -30 -77 -31 -9 0 -35 -11 -58
-23 -22 -11 -45 -21 -51 -21 -12 0 -137 -55 -159 -70 -14 -10 -83 -43 -215
-105 -27 -13 -77 -36 -110 -51 -33 -16 -62 -29 -65 -29 -20 -2 -150 -60 -150
-67 0 -4 -3 -7 -8 -6 -4 1 -17 -3 -30 -10 -12 -7 -22 -9 -22 -5 0 4 -7 -1 -16
-12 -8 -11 -16 -19 -17 -17 -1 2 -15 -1 -30 -7 -16 -6 -32 -11 -37 -11 -19 0
-110 -34 -110 -41 0 -4 -15 -10 -33 -14 -17 -3 -51 -16 -74 -27 l-43 -21 0
-961 c0 -549 4 -1008 10 -1071 10 -113 15 -171 25 -310 4 -44 9 -88 11 -97 5
-17 146 -18 2770 -18 l2764 0 0 1291 c0 709 -4 1288 -8 1285 -5 -3 -16 3 -25
12 -30 33 -46 42 -71 42 -14 0 -28 5 -31 11 -4 6 -14 8 -22 5 -8 -3 -28 3 -44
15 -16 11 -29 18 -29 14 0 -3 -10 3 -22 15 -12 11 -28 20 -35 20 -7 0 -38 12
-70 27 -57 27 -76 33 -100 35 -7 1 -13 5 -13 9 0 4 -13 10 -29 14 -16 3 -35
12 -41 20 -6 8 -17 12 -24 9 -8 -3 -20 1 -28 9 -15 15 -122 67 -138 67 -5 0
-26 10 -47 23 -43 25 -100 47 -125 47 -10 0 -18 5 -18 11 0 6 -7 9 -15 5 -8
-3 -15 -1 -15 4 0 13 -54 40 -80 40 -11 0 -20 5 -20 10 0 6 -6 10 -14 10 -8 0
-17 7 -20 16 -4 10 -13 13 -26 9 -11 -4 -20 -2 -20 4 0 6 -12 14 -27 17 -16 4
-44 18 -63 31 -19 12 -45 23 -57 23 -13 0 -22 5 -20 11 1 6 -34 23 -78 38 -44
15 -90 33 -103 40 -12 6 -27 9 -32 6 -5 -3 -14 4 -21 17 -6 12 -22 33 -35 47
-13 14 -25 29 -25 33 -1 5 -2 11 -3 16 -2 8 -38 62 -87 132 -18 25 -51 77 -75
115 -23 39 -54 80 -67 91 -13 12 -33 36 -43 53 -17 29 -33 36 -61 24z m-1413
-123 c0 -5 -5 -10 -11 -10 -5 0 -7 5 -4 10 3 6 8 10 11 10 2 0 4 -4 4 -10z
m1098 -25 c0 -20 -5 -25 -27 -25 -20 0 -22 3 -11 9 8 6 17 8 21 5 4 -2 5 5 2
16 -3 11 -1 20 5 20 5 0 10 -11 10 -25z m-1418 -786 c0 -6 -4 -7 -10 -4 -5 3
-10 11 -10 16 0 6 5 7 10 4 6 -3 10 -11 10 -16z m27 -68 c7 -24 17 -49 23 -56
5 -6 18 -39 29 -72 11 -33 28 -80 39 -105 12 -24 24 -57 28 -73 4 -17 10 -34
14 -40 4 -5 15 -35 24 -65 10 -30 25 -63 33 -72 9 -10 17 -31 18 -48 2 -18 12
-38 27 -49 21 -17 24 -28 27 -102 1 -49 9 -95 17 -112 9 -16 13 -31 10 -34 -3
-3 1 -18 9 -34 18 -33 19 -89 4 -141 -12 -44 -17 -45 -52 -18 -14 11 -29 19
-34 18 -4 -2 -42 17 -84 42 l-77 44 -31 161 c-31 165 -38 222 -46 410 -2 61
-7 175 -11 254 -5 117 -4 143 7 139 8 -3 19 -24 26 -47z m1308 -631 c-3 -5
-11 -10 -16 -10 -6 0 -7 5 -4 10 3 6 11 10 16 10 6 0 7 -4 4 -10z m-35 -14 c0
-11 -19 -15 -25 -6 -3 5 1 10 9 10 9 0 16 -2 16 -4z m92 -221 c-11 -14 -23
-21 -26 -16 -4 5 0 15 7 23 7 7 17 22 22 33 7 18 9 18 12 3 3 -10 -5 -29 -15
-43z m-952 19 c0 -2 -7 -4 -15 -4 -8 0 -15 4 -15 10 0 5 7 7 15 4 8 -4 15 -8
15 -10z m5 -74 c3 -5 1 -10 -4 -10 -6 0 -11 5 -11 10 0 6 2 10 4 10 3 0 8 -4
11 -10z m532 -32 c-3 -8 -6 -5 -6 6 -1 11 2 17 5 13 3 -3 4 -12 1 -19z m-297
-366 c72 -76 86 -95 140 -199 28 -54 62 -116 75 -138 17 -27 21 -43 14 -51 -7
-9 -5 -13 6 -16 15 -3 14 -6 -5 -28 -12 -14 -33 -50 -48 -80 -14 -30 -28 -57
-32 -60 -4 -3 -10 -14 -14 -25 -7 -19 -43 63 -103 235 -9 25 -31 77 -49 115
-18 39 -35 81 -38 95 -16 76 -47 202 -56 224 l-9 25 37 -25 c20 -14 57 -47 82
-72z m307 -708 c6 -17 -41 -23 -61 -8 -13 9 -14 13 -4 17 21 9 61 3 65 -9z
m-33 -99 c3 -9 0 -15 -8 -15 -7 0 -19 7 -26 15 -10 12 -9 15 8 15 11 0 22 -7
26 -15z"/>
<path d="M2175 2170 c-3 -5 1 -10 10 -10 9 0 13 5 10 10 -3 6 -8 10 -10 10 -2
0 -7 -4 -10 -10z"/>
<path d="M1960 3676 c0 -2 7 -9 15 -16 9 -7 15 -8 15 -2 0 5 -7 12 -15 16 -8
3 -15 4 -15 2z"/>
<path d="M3601 3504 c0 -11 3 -14 6 -6 3 7 2 16 -1 19 -3 4 -6 -2 -5 -13z"/>
<path d="M2855 2710 c-3 -5 -1 -10 4 -10 6 0 11 5 11 10 0 6 -2 10 -4 10 -3 0
-8 -4 -11 -10z"/>
<path d="M2727 2684 c-8 -8 1 -24 14 -24 5 0 9 7 9 15 0 15 -12 20 -23 9z"/>
<path d="M2797 2670 c-3 -11 -1 -20 4 -20 5 0 9 9 9 20 0 11 -2 20 -4 20 -2 0
-6 -9 -9 -20z"/>
<path d="M2581 2544 c0 -11 3 -14 6 -6 3 7 2 16 -1 19 -3 4 -6 -2 -5 -13z"/>
<path d="M2633 2543 c-18 -7 -16 -23 2 -23 8 0 15 7 15 15 0 8 -1 15 -2 14 -2
0 -9 -3 -15 -6z"/>
<path d="M2645 2453 c0 -40 2 -43 25 -42 17 1 19 3 8 6 -24 6 -23 29 2 36 11
3 20 13 19 24 0 10 -3 13 -6 6 -6 -17 -23 -17 -23 0 0 8 -6 14 -12 14 -9 0
-13 -16 -13 -44z"/>
<path d="M2833 2479 c3 -9 0 -22 -6 -28 -8 -8 -7 -11 6 -11 19 0 22 18 6 40
-9 13 -10 13 -6 -1z"/>
<path d="M2724 2464 c3 -9 6 -18 6 -20 0 -2 7 -4 15 -4 8 0 15 9 15 20 0 14
-7 20 -21 20 -15 0 -19 -4 -15 -16z"/>
<path d="M2777 2444 c-9 -19 -15 -40 -12 -45 4 -5 -1 -9 -9 -9 -9 0 -16 5 -16
12 0 6 -3 9 -6 5 -9 -9 6 -67 18 -67 6 0 8 7 4 15 -3 9 0 15 10 15 8 0 14 -6
13 -12 -4 -33 1 -41 16 -28 11 9 15 32 15 81 0 38 -3 69 -7 69 -5 0 -16 -16
-26 -36z m18 -54 c3 -5 1 -10 -4 -10 -6 0 -11 5 -11 10 0 6 2 10 4 10 3 0 8
-4 11 -10z"/>
<path d="M2590 2460 c0 -5 7 -10 16 -10 8 0 12 5 9 10 -3 6 -10 10 -16 10 -5
0 -9 -4 -9 -10z"/>
<path d="M2990 2429 c0 -5 5 -7 10 -4 6 3 10 8 10 11 0 2 -4 4 -10 4 -5 0 -10
-5 -10 -11z"/>
<path d="M2831 2414 c0 -11 3 -14 6 -6 3 7 2 16 -1 19 -3 4 -6 -2 -5 -13z"/>
<path d="M2830 2370 c0 -5 4 -10 9 -10 6 0 13 5 16 10 3 6 -1 10 -9 10 -9 0
-16 -4 -16 -10z"/>
<path d="M2895 2350 c3 -5 8 -10 11 -10 2 0 4 5 4 10 0 6 -5 10 -11 10 -5 0
-7 -4 -4 -10z"/>
<path d="M2926 2334 c-4 -10 -1 -14 6 -12 15 5 23 28 10 28 -5 0 -13 -7 -16
-16z"/>
<path d="M2790 2270 c0 -5 5 -10 10 -10 6 0 10 5 10 10 0 6 -4 10 -10 10 -5 0
-10 -4 -10 -10z"/>
<path d="M3010 2231 c0 -6 5 -13 10 -16 6 -3 10 1 10 9 0 9 -4 16 -10 16 -5 0
-10 -4 -10 -9z"/>
<path d="M2948 2173 c7 -3 16 -2 19 1 4 3 -2 6 -13 5 -11 0 -14 -3 -6 -6z"/>
<path d="M3060 2116 c0 -9 5 -16 10 -16 6 0 10 4 10 9 0 6 -4 13 -10 16 -5 3
-10 -1 -10 -9z"/>
<path d="M2436 1945 c-3 -8 -1 -15 4 -15 6 0 10 7 10 15 0 8 -2 15 -4 15 -2 0
-6 -7 -10 -15z"/>
<path d="M2931 1849 c-2 -14 26 -58 32 -52 14 13 7 45 -7 40 -8 -3 -17 -1 -20
6 -2 7 -5 9 -5 6z"/>
<path d="M3130 1750 c0 -5 5 -10 10 -10 6 0 10 5 10 10 0 6 -4 10 -10 10 -5 0
-10 -4 -10 -10z"/>
</g>
</svg>
